<?xml version="1.0" standalone="no"?>
<!DOCTYPE svg PUBLIC "-//W3C//DTD SVG 20010904//EN"
 "http://www.w3.org/TR/2001/REC-SVG-20010904/DTD/svg10.dtd">
<svg version="1.0" xmlns="http://www.w3.org/2000/svg"
 width="3638.000000pt" height="3638.000000pt" viewBox="0 0 3638.000000 3638.000000"
 preserveAspectRatio="xMidYMid meet">
<metadata>
Created by potrace 1.11, written by Peter Selinger 2001-2013
</metadata>
<g transform="translate(0.000000,3638.000000) scale(0.100000,-0.100000)"
fill="#000000" stroke="none">
<path d="M17618 36375 c-2 -2 -86 -6 -188 -9 -102 -4 -214 -8 -250 -11 -36 -2
-108 -7 -160 -10 -202 -13 -484 -34 -545 -41 -53 -6 -126 -13 -200 -19 -33 -3
-76 -7 -95 -10 -19 -2 -60 -7 -90 -10 -30 -4 -66 -8 -80 -10 -14 -2 -50 -6
-80 -9 -30 -3 -64 -8 -75 -10 -11 -2 -47 -7 -80 -10 -33 -4 -71 -9 -85 -11
-14 -3 -45 -7 -70 -10 -43 -5 -69 -9 -135 -20 -16 -3 -48 -8 -70 -10 -50 -7
-93 -14 -125 -20 -14 -3 -41 -7 -60 -10 -19 -2 -46 -6 -60 -9 -14 -2 -44 -7
-68 -10 -24 -3 -46 -7 -50 -10 -4 -2 -27 -7 -52 -10 -25 -3 -58 -9 -75 -11
-38 -7 -245 -46 -265 -50 -8 -2 -62 -13 -120 -25 -58 -11 -114 -23 -125 -26
-11 -2 -33 -7 -50 -9 -16 -3 -37 -8 -45 -10 -8 -2 -27 -6 -42 -9 -16 -3 -76
-16 -135 -30 -60 -14 -148 -35 -198 -46 -49 -12 -153 -37 -230 -56 -77 -20
-147 -37 -155 -39 -33 -7 -324 -87 -455 -125 -77 -23 -147 -43 -155 -45 -18
-4 -138 -42 -330 -103 -80 -25 -148 -46 -152 -46 -3 -1 -10 -4 -14 -8 -4 -5
-15 -8 -25 -8 -10 0 -28 -4 -41 -9 -13 -5 -25 -8 -28 -8 -3 0 -15 -5 -28 -12
-13 -7 -31 -14 -40 -16 -19 -4 -265 -90 -382 -134 -110 -41 -174 -65 -180 -67
-3 0 -12 -4 -20 -7 -20 -9 -202 -78 -215 -81 -10 -3 -44 -17 -95 -39 -14 -6
-27 -11 -30 -12 -8 -3 -129 -52 -190 -78 -14 -6 -27 -11 -30 -12 -5 -2 -48
-20 -90 -38 -14 -6 -27 -11 -30 -12 -12 -4 -63 -26 -104 -45 -25 -11 -47 -20
-49 -20 -2 0 -35 -14 -73 -32 -38 -17 -71 -32 -74 -33 -3 -1 -30 -13 -60 -27
-30 -14 -81 -37 -112 -52 -31 -14 -62 -26 -67 -26 -6 0 -11 -5 -11 -10 0 -6
-3 -9 -7 -8 -21 7 -799 -382 -1088 -544 -27 -15 -75 -41 -105 -58 -30 -16 -80
-44 -110 -61 -30 -17 -68 -38 -85 -48 -16 -9 -32 -18 -35 -21 -6 -6 -56 -34
-112 -63 -20 -10 -42 -25 -49 -33 -6 -8 -20 -14 -30 -14 -11 0 -19 -4 -19 -8
0 -5 -21 -19 -47 -32 -27 -13 -52 -29 -56 -37 -4 -7 -12 -13 -18 -13 -5 0 -28
-12 -52 -27 -23 -15 -58 -36 -77 -46 -19 -11 -38 -25 -42 -31 -4 -6 -8 -8 -8
-4 0 4 -33 -15 -72 -41 -40 -26 -84 -54 -98 -61 -13 -7 -31 -19 -38 -27 -7 -7
-20 -13 -28 -13 -8 0 -14 -4 -14 -8 0 -4 -15 -16 -32 -27 -56 -32 -202 -129
-216 -142 -7 -7 -17 -13 -22 -13 -5 0 -15 -6 -22 -13 -7 -7 -38 -28 -68 -47
-30 -19 -57 -37 -60 -40 -3 -3 -22 -16 -43 -29 -21 -13 -43 -28 -50 -34 -6 -7
-32 -25 -56 -41 -25 -16 -50 -33 -55 -38 -6 -5 -61 -44 -123 -87 -61 -43 -119
-85 -128 -94 -9 -9 -20 -17 -24 -17 -4 0 -17 -9 -29 -20 -12 -12 -22 -18 -22
-15 0 4 -6 0 -14 -7 -18 -17 -50 -42 -171 -132 -115 -86 -141 -106 -160 -123
-8 -7 -17 -13 -22 -13 -5 0 -15 -9 -23 -20 -8 -11 -18 -20 -21 -20 -4 0 -18
-9 -31 -20 -12 -11 -66 -53 -118 -95 -52 -42 -104 -83 -115 -93 -11 -9 -40
-33 -65 -52 -47 -36 -211 -173 -240 -200 -9 -8 -35 -31 -59 -50 -24 -19 -55
-46 -70 -60 -15 -14 -53 -47 -86 -75 -33 -27 -69 -59 -81 -70 -11 -11 -53 -49
-94 -85 -121 -108 -305 -279 -413 -382 -39 -38 -74 -68 -79 -68 -4 0 -8 -7 -8
-15 0 -8 -4 -15 -10 -15 -8 0 -440 -427 -440 -435 0 -2 -35 -39 -77 -83 -85
-86 -255 -269 -385 -415 -26 -28 -60 -66 -75 -83 -40 -45 -116 -133 -149 -174
-16 -19 -31 -37 -35 -40 -7 -5 -62 -70 -121 -141 -20 -24 -44 -54 -55 -65 -10
-12 -31 -38 -48 -59 -16 -20 -38 -46 -49 -58 -10 -12 -30 -38 -45 -57 -14 -19
-33 -42 -41 -51 -8 -9 -24 -28 -35 -43 -25 -32 -43 -55 -77 -97 -49 -60 -213
-274 -246 -319 -18 -25 -66 -90 -108 -145 -41 -55 -83 -111 -92 -125 -9 -13
-59 -83 -109 -155 -51 -71 -99 -138 -105 -149 -7 -10 -28 -38 -45 -62 -18 -23
-33 -46 -33 -50 0 -4 -7 -16 -17 -26 -9 -10 -21 -26 -27 -36 -6 -11 -33 -52
-61 -93 -27 -41 -54 -81 -60 -91 -5 -9 -20 -30 -33 -47 -13 -17 -20 -31 -15
-31 4 0 3 -4 -3 -8 -15 -10 -74 -99 -74 -112 0 -6 -7 -13 -15 -16 -8 -4 -12
-10 -9 -15 3 -5 0 -9 -5 -9 -6 0 -11 -4 -11 -10 0 -5 -19 -39 -43 -74 -41 -63
-90 -142 -133 -215 -12 -20 -40 -65 -63 -101 -23 -36 -47 -76 -53 -90 -7 -14
-34 -60 -61 -102 -26 -43 -44 -78 -40 -78 5 0 3 -4 -3 -8 -9 -7 -74 -115 -135
-227 -15 -27 -41 -75 -58 -105 -17 -30 -48 -89 -69 -130 -20 -41 -40 -77 -43
-80 -3 -3 -29 -50 -58 -104 -28 -55 -57 -106 -64 -114 -6 -8 -10 -16 -8 -16 4
-1 -61 -139 -70 -146 -3 -3 -14 -26 -25 -52 -10 -27 -22 -48 -26 -48 -5 0 -8
-4 -8 -10 0 -5 -38 -87 -84 -182 -83 -171 -151 -318 -229 -493 -21 -49 -47
-106 -55 -125 -9 -19 -16 -37 -17 -40 -1 -3 -8 -18 -15 -35 -7 -16 -14 -32
-15 -35 0 -3 -8 -21 -17 -40 -9 -19 -28 -64 -43 -100 -14 -36 -30 -74 -35 -85
-5 -11 -41 -101 -80 -200 -39 -99 -75 -189 -80 -200 -25 -60 -52 -135 -48
-138 1 -2 -2 -10 -8 -18 -12 -15 -49 -121 -45 -128 2 -2 -1 -7 -6 -10 -7 -5
-89 -233 -96 -266 -2 -5 -5 -14 -8 -20 -6 -9 -29 -75 -36 -100 -1 -5 -14 -44
-28 -85 -15 -41 -28 -83 -30 -92 -2 -9 -8 -25 -13 -35 -6 -10 -11 -22 -11 -28
-2 -12 -18 -64 -66 -215 -32 -101 -141 -469 -151 -510 -5 -23 -50 -185 -79
-290 -15 -52 -28 -104 -29 -115 -2 -11 -9 -40 -16 -65 -7 -25 -14 -52 -15 -60
-1 -8 -8 -35 -14 -60 -13 -44 -16 -57 -26 -102 -2 -13 -8 -36 -12 -53 -4 -16
-7 -32 -8 -35 0 -3 -9 -41 -19 -85 -10 -44 -20 -87 -21 -95 -2 -8 -4 -15 -5
-15 -1 0 -3 -9 -5 -20 -1 -11 -17 -87 -35 -170 -17 -82 -33 -159 -36 -170 -15
-74 -34 -174 -38 -195 -2 -14 -11 -65 -21 -115 -17 -92 -19 -102 -30 -170 -4
-22 -9 -51 -11 -65 -3 -14 -7 -38 -9 -55 -2 -16 -7 -41 -10 -55 -3 -14 -7 -45
-10 -70 -3 -25 -8 -56 -11 -70 -2 -14 -6 -34 -8 -45 -2 -11 -7 -47 -11 -80 -3
-32 -8 -62 -10 -65 -1 -3 -6 -30 -9 -60 -7 -58 -8 -70 -26 -203 -6 -45 -13
-98 -15 -117 -2 -19 -9 -71 -14 -115 -6 -44 -14 -114 -18 -155 -10 -97 -10
-3791 0 -3890 4 -41 9 -86 11 -100 3 -14 8 -54 11 -90 16 -148 25 -221 30
-240 2 -8 7 -40 10 -70 7 -58 10 -80 19 -145 4 -22 9 -58 11 -79 3 -22 7 -52
10 -68 7 -42 13 -75 25 -153 7 -38 14 -83 17 -100 2 -16 6 -39 8 -50 1 -11 8
-47 13 -80 6 -33 14 -77 17 -99 3 -21 7 -41 9 -45 2 -3 7 -24 10 -46 4 -22 17
-96 31 -165 13 -69 26 -137 29 -152 2 -15 7 -31 10 -36 2 -4 7 -28 10 -52 3
-25 11 -63 16 -85 6 -22 12 -52 15 -67 2 -15 8 -44 14 -65 6 -21 12 -49 14
-63 3 -14 15 -65 27 -115 12 -49 24 -101 26 -115 3 -14 16 -70 30 -125 14 -55
27 -107 28 -115 2 -8 10 -35 17 -60 7 -25 13 -51 15 -58 1 -7 14 -59 29 -115
15 -56 29 -109 30 -117 2 -8 4 -16 5 -17 2 -2 3 -6 4 -10 1 -5 7 -24 14 -43 6
-19 14 -46 16 -60 3 -14 5 -25 6 -25 1 0 3 -8 5 -17 2 -10 13 -48 24 -85 12
-38 26 -84 31 -103 5 -19 19 -64 30 -99 11 -35 20 -70 20 -78 0 -7 4 -21 9
-31 8 -15 71 -208 103 -317 6 -22 15 -44 20 -49 4 -6 8 -16 8 -23 0 -16 207
-610 230 -658 5 -11 27 -67 49 -125 22 -58 46 -121 55 -140 8 -19 26 -64 40
-100 21 -54 64 -159 119 -290 6 -14 11 -27 12 -30 4 -11 27 -67 40 -95 8 -16
42 -93 75 -170 60 -135 93 -209 148 -325 15 -30 25 -58 24 -62 -1 -5 2 -8 8
-8 6 0 9 -3 8 -7 -3 -9 280 -580 370 -748 123 -230 192 -356 202 -370 4 -5 24
-40 43 -77 54 -101 61 -112 72 -120 6 -4 6 -8 2 -8 -4 0 1 -10 12 -22 11 -11
18 -25 15 -29 -2 -4 0 -10 5 -13 5 -4 26 -37 47 -74 20 -37 42 -70 48 -74 6
-4 8 -8 3 -8 -4 0 9 -23 28 -50 19 -28 33 -50 30 -50 -3 0 8 -20 25 -44 16
-25 30 -49 30 -54 0 -6 3 -12 8 -14 10 -4 192 -297 192 -309 0 -5 5 -9 10 -9
6 0 10 -6 10 -14 0 -8 4 -16 8 -18 4 -1 50 -68 102 -148 52 -80 98 -146 102
-148 5 -2 8 -10 8 -18 0 -8 4 -14 9 -14 5 0 11 -8 14 -17 6 -17 111 -169 142
-206 8 -9 15 -21 15 -25 0 -5 16 -27 36 -50 19 -23 32 -42 27 -42 -4 0 -3 -4
3 -8 5 -4 39 -47 74 -97 36 -49 67 -92 71 -95 3 -3 21 -27 39 -55 34 -50 55
-76 77 -100 7 -8 13 -18 13 -24 0 -6 4 -11 9 -11 5 0 12 -8 15 -17 3 -10 18
-31 34 -48 15 -16 35 -43 45 -58 21 -32 38 -55 84 -107 18 -21 33 -40 33 -44
0 -4 11 -18 25 -32 14 -14 25 -28 25 -32 0 -6 30 -44 73 -92 7 -8 31 -37 53
-65 21 -27 41 -52 44 -55 3 -3 21 -25 40 -50 19 -25 40 -49 46 -55 6 -5 28
-32 50 -60 21 -27 44 -55 49 -61 6 -6 30 -35 54 -64 25 -29 50 -58 55 -64 6
-6 31 -36 56 -66 25 -30 60 -69 78 -87 17 -18 32 -35 32 -37 0 -3 10 -16 22
-29 13 -13 59 -63 103 -112 44 -49 94 -104 110 -122 149 -161 218 -235 263
-282 28 -30 52 -58 52 -63 0 -4 7 -8 15 -8 8 0 15 -4 15 -9 0 -10 359 -371
524 -526 65 -60 146 -137 180 -170 35 -33 96 -89 136 -125 40 -36 78 -70 84
-75 42 -40 212 -189 261 -230 33 -28 69 -60 81 -73 12 -12 24 -22 27 -22 6 0
28 -19 112 -97 25 -22 45 -39 45 -37 0 4 5 0 105 -83 39 -32 72 -61 73 -65 2
-5 8 -8 13 -8 6 0 20 -10 33 -23 26 -24 31 -28 131 -107 39 -30 75 -58 80 -62
6 -5 37 -29 70 -54 85 -64 127 -97 142 -112 7 -7 13 -11 13 -7 0 4 7 -1 16
-10 9 -9 29 -24 43 -33 14 -9 30 -22 34 -29 4 -7 15 -13 22 -13 8 0 15 -4 15
-9 0 -5 17 -20 38 -32 20 -13 39 -26 42 -29 8 -10 143 -107 305 -220 83 -57
152 -107 155 -110 9 -9 100 -70 106 -70 3 0 29 -18 58 -40 29 -22 56 -40 60
-40 6 0 65 -39 76 -50 3 -3 37 -25 75 -50 39 -25 72 -47 75 -51 3 -3 12 -8 20
-12 8 -3 78 -47 155 -96 77 -50 151 -97 165 -104 29 -16 372 -222 410 -246 14
-8 27 -16 30 -16 3 0 34 -17 70 -38 36 -21 72 -42 80 -47 8 -5 42 -23 75 -41
33 -17 63 -36 66 -41 3 -5 9 -9 13 -8 3 0 34 -15 69 -34 211 -116 864 -449
909 -464 4 -1 52 -23 105 -48 54 -25 123 -57 153 -71 30 -14 88 -40 128 -59
40 -19 75 -34 77 -34 2 0 75 -31 162 -69 143 -62 188 -81 203 -86 7 -2 62 -24
80 -32 8 -3 17 -7 20 -8 3 -1 19 -7 35 -15 52 -22 87 -37 205 -83 180 -70 314
-121 325 -123 6 -1 35 -12 65 -24 30 -12 98 -37 150 -55 52 -18 154 -53 225
-78 72 -24 225 -75 340 -112 116 -36 221 -70 235 -75 14 -4 59 -18 100 -30 41
-12 104 -31 140 -42 36 -11 76 -22 90 -24 14 -3 63 -16 110 -30 46 -14 92 -28
102 -30 39 -9 57 -13 153 -39 55 -15 107 -29 115 -31 8 -2 42 -11 75 -19 33
-9 69 -18 80 -20 11 -2 27 -6 35 -8 56 -15 285 -69 305 -72 11 -1 61 -12 110
-23 50 -12 101 -23 115 -26 14 -2 117 -23 230 -46 113 -23 216 -43 230 -45 14
-2 63 -11 110 -20 47 -9 94 -18 105 -19 11 -2 52 -9 90 -15 39 -7 81 -14 95
-16 14 -2 43 -7 65 -10 22 -3 65 -10 95 -15 30 -6 80 -13 110 -16 30 -3 57 -7
60 -9 3 -2 35 -7 70 -10 36 -4 67 -8 70 -10 3 -2 34 -6 70 -10 36 -4 73 -9 82
-10 9 -2 45 -6 80 -10 35 -3 74 -7 88 -10 14 -2 54 -7 90 -11 36 -3 74 -9 85
-12 31 -10 3812 -12 3876 -2 31 4 94 11 140 15 46 4 86 8 89 10 3 2 34 6 70
10 36 4 72 8 80 10 8 2 47 6 85 10 39 4 79 9 90 12 11 2 36 6 55 8 19 3 49 7
65 10 17 3 51 7 76 10 26 3 55 7 65 9 17 3 62 10 137 22 61 9 209 35 347 59
19 4 46 8 60 10 14 2 84 15 155 30 72 15 141 28 154 30 13 2 55 10 95 19 39 8
83 18 99 21 48 9 78 15 146 31 36 9 73 17 81 19 8 2 38 9 65 15 28 7 59 14 70
15 34 6 492 122 650 165 83 23 157 43 165 45 43 10 414 122 540 163 80 25 147
47 150 47 6 1 229 74 250 82 8 3 20 7 25 9 6 2 55 19 110 39 55 20 105 38 110
39 6 2 17 6 25 9 8 3 85 31 170 62 85 31 169 63 187 71 17 8 34 14 38 14 4 0
21 6 38 14 37 16 200 80 207 82 5 0 34 13 100 43 19 8 37 16 40 16 3 1 14 5
25 10 11 4 47 19 80 32 33 13 79 33 102 44 24 10 45 19 48 19 2 0 30 12 62 26
32 15 72 32 88 39 17 8 100 46 185 85 85 40 165 74 178 77 12 3 22 9 22 14 0
5 4 9 10 9 5 0 72 30 147 67 76 37 140 67 143 68 3 0 21 9 40 20 19 10 112 56
205 103 94 47 178 92 188 100 9 8 17 12 17 8 0 -4 13 2 29 13 16 12 36 21 45
21 9 0 16 5 16 10 0 6 5 10 11 10 6 0 37 15 69 34 32 19 61 32 64 29 3 -4 6
-2 6 4 0 5 26 22 58 38 31 15 65 34 75 43 9 8 17 12 17 9 0 -4 24 8 53 26 28
18 70 42 92 52 22 11 42 23 45 26 5 5 109 66 140 82 8 4 27 15 42 25 41 27
137 82 143 82 3 0 13 7 22 15 10 8 22 15 27 14 5 0 12 3 15 8 6 10 118 79 164
102 15 8 27 18 27 23 0 4 6 8 13 8 6 0 30 14 51 30 22 17 42 30 46 30 6 0 197
122 218 140 6 6 12 8 12 5 0 -3 8 2 18 11 9 9 48 36 87 60 38 25 78 52 87 61
10 9 18 12 18 7 0 -5 4 -4 8 2 4 6 59 46 122 89 63 43 117 82 118 86 2 5 8 9
13 9 8 0 106 66 119 80 3 3 18 14 35 24 16 11 34 23 40 28 55 44 115 87 115
83 0 -3 8 3 18 13 10 9 29 24 42 32 12 8 32 23 44 32 11 10 59 46 106 80 47
34 87 65 90 68 3 3 34 28 69 54 75 56 86 65 112 88 10 10 19 16 19 12 0 -3 11
6 24 20 13 15 28 26 35 26 6 0 16 9 23 20 7 11 17 20 23 20 5 0 26 15 46 33
20 17 87 73 149 122 61 50 127 105 146 122 19 18 36 33 38 33 5 0 39 28 90 75
18 17 51 45 74 63 23 19 52 44 65 55 13 12 55 49 92 82 38 33 83 74 101 90 18
17 62 57 99 90 37 33 94 85 126 115 32 30 112 107 179 170 263 248 692 687
925 946 62 68 82 91 148 162 20 23 37 46 37 52 0 5 4 10 9 10 11 0 181 198
181 211 0 6 4 8 8 5 4 -2 18 11 31 30 13 19 27 34 32 34 5 0 9 5 9 10 0 6 10
21 23 34 12 13 36 40 52 61 17 20 39 48 50 61 11 12 30 36 42 51 12 15 34 43
50 60 15 18 41 51 57 73 17 22 33 40 38 40 4 0 8 5 8 11 0 6 12 26 28 44 36
43 52 62 87 110 33 44 63 81 83 101 6 7 12 16 12 19 0 4 18 29 40 55 22 26 40
53 40 59 0 6 4 11 8 11 4 0 25 25 47 56 22 31 45 61 51 67 6 7 26 35 45 63 20
28 41 57 48 65 7 8 66 91 131 184 65 94 122 175 127 180 4 6 62 91 127 190 65
99 123 182 127 183 5 2 9 10 9 17 0 8 6 20 13 27 7 7 42 59 77 116 36 56 73
115 82 130 10 15 21 34 25 42 4 8 11 20 15 25 22 27 116 185 110 185 -4 0 -2
4 4 8 6 4 26 33 44 64 17 32 36 61 41 64 5 3 7 10 4 15 -4 5 -1 9 4 9 6 0 11
5 11 10 0 6 11 27 23 48 13 20 32 51 43 67 10 17 17 33 16 38 -1 4 2 7 7 7 5
0 12 11 15 25 4 14 11 25 16 25 6 0 10 5 10 10 0 6 21 48 47 93 26 45 47 85
45 90 -1 4 2 7 6 7 5 0 16 19 27 43 10 23 21 44 25 47 4 3 36 61 72 130 36 69
89 170 118 225 100 189 355 711 365 745 1 3 18 41 39 85 77 165 116 251 116
259 0 3 16 40 36 83 43 95 36 76 130 308 42 105 82 204 89 220 33 76 202 528
210 560 1 6 5 17 8 25 10 23 129 364 131 375 1 6 4 15 8 20 7 13 22 78 20 88
-1 4 2 7 6 7 5 0 14 24 21 52 8 29 16 58 20 63 3 6 7 19 8 30 2 11 6 27 10 35
3 8 7 20 9 25 1 6 21 71 44 145 23 74 51 165 61 203 10 37 28 100 40 140 19
67 56 203 65 237 2 8 24 94 49 190 36 140 79 320 120 500 33 142 91 422 121
580 9 47 18 94 20 105 2 11 7 34 9 50 3 17 10 55 16 85 6 30 13 71 15 90 3 19
9 55 14 80 5 25 12 65 16 90 3 25 8 54 10 65 10 62 44 297 48 335 3 25 7 54
10 65 5 28 15 102 21 155 3 25 7 61 10 80 3 19 7 56 10 82 3 27 8 72 11 100 3
29 7 69 9 88 2 19 6 62 9 95 21 203 32 318 41 445 3 36 7 97 10 135 4 39 8
106 10 150 3 44 7 114 9 155 29 467 29 1473 1 1940 -2 36 -7 112 -10 170 -3
58 -8 125 -10 150 -2 25 -7 86 -10 135 -3 50 -8 108 -10 130 -2 22 -7 69 -10
105 -3 36 -8 81 -10 100 -3 19 -7 65 -10 101 -2 37 -7 82 -9 100 -3 19 -8 61
-11 94 -3 33 -8 74 -11 90 -7 48 -14 106 -20 170 -3 33 -8 63 -10 66 -1 3 -6
37 -9 75 -3 38 -8 76 -10 84 -3 8 -7 35 -10 60 -7 57 -33 227 -39 259 -3 12
-8 43 -10 67 -3 24 -8 54 -11 66 -5 24 -8 42 -25 143 -5 33 -12 71 -15 85 -3
14 -12 63 -20 110 -9 47 -24 128 -35 180 -11 52 -22 111 -25 130 -3 19 -8 43
-11 52 -3 10 -7 30 -10 45 -2 16 -11 60 -20 98 -9 39 -17 77 -19 85 -14 66
-78 342 -95 410 -12 47 -23 94 -25 105 -2 11 -27 106 -55 210 -28 105 -53 197
-55 205 -2 8 -4 15 -5 15 -1 0 -3 7 -5 15 -2 8 -10 41 -19 73 -9 31 -23 83
-31 115 -9 31 -18 64 -22 72 -3 8 -7 20 -9 27 -1 6 -7 27 -12 45 -57 183 -84
272 -86 282 -1 6 -17 56 -36 111 -19 55 -35 102 -35 105 -1 7 -45 142 -52 160
-4 8 -7 18 -8 23 -2 4 -3 8 -5 10 -1 1 -3 9 -5 17 -2 8 -18 53 -35 100 -18 47
-37 101 -42 120 -6 19 -13 40 -16 45 -4 6 -7 15 -8 20 -1 6 -8 24 -15 40 -6
17 -13 35 -14 40 -3 13 -124 332 -140 370 -7 17 -20 50 -30 75 -9 25 -23 59
-30 75 -7 17 -45 109 -85 205 -40 96 -80 193 -90 215 -126 284 -152 341 -154
350 -2 6 -29 64 -60 130 -32 66 -71 149 -88 185 -106 228 -292 586 -483 935
-12 22 -38 71 -59 108 -62 114 -304 524 -362 613 -30 47 -54 88 -54 92 0 5 -8
17 -17 28 -10 11 -27 37 -38 59 -11 21 -25 43 -30 49 -6 6 -22 29 -35 51 -13
22 -82 127 -152 233 -70 107 -128 198 -128 204 0 5 -4 6 -10 3 -5 -3 -10 0
-10 7 0 8 -7 23 -15 33 -62 82 -105 144 -105 151 0 5 -14 23 -30 41 -17 18
-30 35 -30 38 0 12 -505 694 -529 715 -3 3 -22 27 -41 53 -19 27 -47 60 -62
74 -16 15 -28 32 -28 40 0 7 -4 13 -8 13 -4 0 -32 32 -61 70 -30 39 -57 70
-62 70 -5 0 -9 6 -9 14 0 8 -11 23 -25 34 -14 11 -25 23 -25 27 0 5 -162 200
-180 215 -3 3 -24 27 -45 54 -22 27 -53 64 -70 81 -16 18 -41 45 -55 62 -26
30 -125 141 -193 216 -53 59 -194 210 -317 339 -99 104 -469 478 -474 478 -1
0 -49 46 -107 103 -125 120 -254 239 -473 437 -22 19 -48 43 -58 53 -10 9 -20
17 -23 17 -3 0 -18 12 -33 28 -46 44 -111 102 -116 102 -3 0 -16 10 -28 23
-32 30 -119 104 -268 225 -24 21 -52 45 -62 55 -10 9 -22 17 -27 17 -5 0 -11
3 -13 8 -3 7 -38 37 -101 85 -15 12 -39 32 -52 45 -13 12 -28 22 -34 22 -5 0
-11 4 -13 8 -1 5 -34 32 -73 62 -38 30 -71 57 -73 62 -2 4 -9 8 -16 8 -6 0
-18 9 -26 20 -8 11 -19 20 -25 20 -5 0 -24 13 -41 28 -17 15 -57 45 -89 67
-31 22 -67 50 -80 63 -13 12 -28 22 -34 22 -5 0 -11 4 -13 8 -1 5 -25 23 -53
42 -27 18 -52 37 -55 40 -5 6 -81 61 -125 90 -54 35 -161 115 -167 124 -4 6
-8 7 -8 2 0 -5 -10 0 -22 11 -13 11 -93 67 -178 124 -85 56 -158 107 -161 112
-3 5 -8 7 -10 6 -2 -2 -29 13 -59 34 -101 69 -527 336 -650 407 -8 5 -64 38
-125 73 -60 36 -123 72 -140 81 -16 9 -46 26 -65 37 -79 47 -301 169 -307 169
-3 0 -14 7 -24 16 -9 8 -24 16 -32 18 -8 1 -21 7 -28 13 -8 6 -57 32 -109 59
-52 26 -108 57 -125 68 -16 12 -31 19 -33 17 -3 -3 -113 50 -122 59 -5 6 -262
134 -270 135 -3 0 -50 22 -105 49 -94 46 -172 82 -290 136 -101 46 -140 63
-145 65 -3 1 -22 9 -42 18 -21 9 -55 25 -75 34 -21 9 -40 17 -43 18 -3 0 -21
8 -40 17 -86 39 -130 58 -135 58 -3 0 -27 10 -53 21 -71 32 -93 41 -277 114
-93 36 -179 71 -190 76 -12 6 -27 11 -35 13 -8 2 -28 9 -45 15 -16 7 -73 28
-125 48 -52 19 -104 38 -115 43 -11 5 -49 19 -85 31 -36 12 -101 35 -145 51
-44 16 -84 30 -90 32 -5 1 -122 39 -260 85 -137 45 -257 83 -265 85 -8 1 -53
15 -100 30 -47 15 -92 29 -100 31 -8 2 -27 8 -42 14 -16 6 -28 8 -28 6 0 -2
-12 0 -27 6 -16 6 -57 19 -93 29 -36 10 -99 28 -140 40 -85 24 -138 39 -160
44 -8 2 -62 16 -120 31 -58 15 -115 29 -127 31 -12 2 -33 8 -45 13 -13 5 -26
9 -31 9 -14 1 -73 14 -162 37 -33 8 -91 22 -130 31 -38 8 -77 17 -85 19 -8 2
-58 13 -110 24 -52 11 -126 28 -165 36 -38 8 -83 18 -100 21 -16 2 -37 7 -45
9 -8 2 -31 7 -50 10 -19 3 -42 8 -50 10 -18 5 -73 15 -119 21 -18 2 -36 6 -40
8 -3 3 -25 7 -47 10 -37 6 -49 8 -114 20 -14 3 -41 7 -60 10 -19 3 -60 10 -90
16 -30 6 -73 13 -95 15 -22 3 -49 6 -60 9 -20 4 -83 14 -140 22 -16 2 -41 7
-55 9 -14 3 -43 7 -65 10 -53 6 -124 16 -155 21 -14 2 -45 6 -70 9 -25 3 -58
8 -75 10 -55 7 -119 15 -170 20 -27 3 -63 8 -80 10 -16 2 -57 7 -90 10 -33 3
-78 7 -100 10 -35 4 -103 11 -215 21 -19 1 -66 5 -105 8 -38 4 -92 8 -120 11
-27 2 -90 7 -140 10 -49 3 -112 7 -140 10 -27 2 -113 7 -190 11 -77 3 -169 8
-205 10 -78 6 -1267 14 -1272 9z"/>
</g>
</svg>
